<svg width="807" height="993" viewBox="0 0 807 993" fill="none" xmlns="http://www.w3.org/2000/svg">
<path fill="white" fill-rule="evenodd" clip-rule="evenodd" d="M772.597 122.613C770.522 121.169 769.796 118.435 770.882 116.152C783.061 90.5294 773.684 57.1748 749.937 41.6526C726.189 26.1304 697.065 34.3186 684.885 59.9414L616.086 204.676L731.598 255.456C741.122 259.643 744.18 271.661 737.817 279.89L641.949 403.878H607.819L707.848 274.509L496.448 181.576L451.545 403.878H424L472.687 162.841C474.708 152.833 485.461 147.253 494.809 151.362L587.047 191.91L658.1 42.4333C677.866 0.848888 725.134 -12.44 763.674 12.7516C802.215 37.9432 817.434 92.0759 797.667 133.66C796.469 136.18 793.296 137.023 791.005 135.429L772.597 122.613ZM279.412 228.784L89.7211 307.25C72.8797 314.216 64.4392 333.688 70.8688 350.742L90.9484 404H380.723L321.548 247.048C315.119 229.995 296.254 221.817 279.412 228.784ZM409.563 404L346.498 236.728C334.808 205.721 300.508 190.853 269.887 203.52L80.196 281.986C49.5752 294.652 34.2289 330.056 45.9191 361.062L62.1076 404H36C16.1178 404 0 420.118 0 440V540C0 559.882 16.1177 576 36 576H42.1481C42.0502 576.987 42 577.987 42 579V963C42 979.569 55.4314 993 72 993H711C727.569 993 741 979.569 741 963V579C741 577.987 740.95 576.987 740.852 576H747C766.882 576 783 559.882 783 540V440C783 420.118 766.882 404 747 404H409.563ZM711 549H72H36C31.0294 549 27 544.971 27 540V440C27 435.029 31.0294 431 36 431H747C751.971 431 756 435.029 756 440V540C756 544.971 751.971 549 747 549H711ZM69 579C69 577.343 70.3432 576 72 576H711C712.657 576 714 577.343 714 579V963C714 964.657 712.657 966 711 966H72C70.3431 966 69 964.657 69 963V579ZM372.824 815.358C372.824 816.064 373.396 816.636 374.102 816.636H397.114C397.82 816.636 398.392 816.064 398.392 815.358C398.534 806.551 399.457 799.2 401.162 793.305C402.866 787.411 405.601 782.332 409.365 778.071C413.129 773.739 418.136 769.619 424.386 765.713C430.636 761.878 435.963 757.474 440.366 752.503C444.841 747.531 448.25 741.885 450.594 735.564C453.009 729.243 454.216 722.176 454.216 714.364C454.216 703.284 451.659 693.412 446.545 684.747C441.503 676.082 434.33 669.264 425.026 664.293C415.793 659.321 404.926 656.835 392.426 656.835C380.92 656.835 370.445 659.108 360.999 663.653C351.624 668.199 344.06 674.769 338.307 683.362C334.964 688.418 332.507 694.076 330.934 700.336C329.051 707.831 335.396 714.364 343.125 714.364C350.247 714.364 355.816 708.705 358.11 701.962C359.12 698.991 360.438 696.342 362.064 694.016C365.686 688.831 370.196 685.031 375.594 682.616C380.991 680.202 386.602 678.994 392.426 678.994C399.102 678.994 405.175 680.379 410.643 683.149C416.112 685.919 420.48 689.861 423.747 694.974C427.014 700.088 428.648 706.125 428.648 713.085C428.648 718.696 427.653 723.81 425.665 728.426C423.747 733.043 421.119 737.126 417.781 740.678C414.443 744.158 410.679 747.176 406.489 749.733C399.528 753.923 393.562 758.504 388.591 763.476C383.619 768.447 379.784 774.946 377.085 782.972C374.386 790.997 372.966 801.793 372.824 815.358ZM372.93 874.058C376.695 877.822 381.205 879.705 386.46 879.705C390.011 879.705 393.207 878.852 396.048 877.148C398.96 875.372 401.268 873.028 402.973 870.117C404.749 867.205 405.636 864.008 405.636 860.528C405.636 855.273 403.754 850.763 399.99 846.999C396.226 843.234 391.716 841.352 386.46 841.352C381.205 841.352 376.695 843.234 372.93 846.999C369.166 850.763 367.284 855.273 367.284 860.528C367.284 865.784 369.166 870.294 372.93 874.058ZM192.108 330.024C186.525 332.511 184.016 339.052 186.502 344.634C188.989 350.217 195.53 352.726 201.112 350.24L233.713 335.718C239.296 333.231 241.805 326.69 239.319 321.108C236.832 315.525 230.291 313.016 224.709 315.502L192.108 330.024Z" />
</svg>
