<svg width="1029" height="1072" viewBox="0 0 1029 1072" fill="none" xmlns="http://www.w3.org/2000/svg">
<path fill="white" fill-rule="evenodd" clip-rule="evenodd" d="M992.882 116.152C991.796 118.435 992.522 121.169 994.597 122.613L1013.01 135.429C1015.3 137.023 1018.47 136.18 1019.67 133.66C1039.43 92.0759 1024.22 37.9432 985.674 12.7516C947.134 -12.44 899.866 0.848888 880.1 42.4333L809.047 191.91L716.809 151.362C707.461 147.253 696.708 152.833 694.687 162.841L646 403.878H673.545L718.448 181.576L929.848 274.509L829.819 403.878H863.949L959.817 279.89C966.18 271.661 963.122 259.643 953.598 255.456L838.086 204.676L906.885 59.9414C919.065 34.3186 948.189 26.1304 971.937 41.6526C995.684 57.1748 1005.06 90.5294 992.882 116.152ZM311.721 307.25L501.412 228.784C518.254 221.817 537.119 229.995 543.548 247.048L602.723 404H312.948L292.869 350.742C286.439 333.688 294.88 314.216 311.721 307.25ZM568.498 236.728L631.563 404H969C988.882 404 1005 420.118 1005 440V540C1005 559.882 988.882 576 969 576H962.852C962.95 576.987 963 577.987 963 579V963C963 979.569 949.569 993 933 993H588.085C595.267 1018.51 599 1045.06 599 1072H299.5L0 1072C1.1994e-05 993.68 31.5544 918.568 87.7215 863.188C135.456 816.122 197.644 786.584 264 778.776V734.132C198.431 718.415 149.75 660.139 149.75 590.653C149.75 537.076 178.691 490.164 222 464.286V440C222 420.118 238.118 404 258 404H284.108L267.919 361.062C256.229 330.056 271.575 294.652 302.196 281.986L491.887 203.52C522.508 190.853 556.808 205.721 568.498 236.728ZM443.209 549C424.973 487.735 367.535 443 299.5 443C281.779 443 264.777 446.035 249 451.606V440C249 435.029 253.029 431 258 431H969C973.971 431 978 435.029 978 440V540C978 544.971 973.971 549 969 549H933H443.209ZM291 738.071C293.813 738.227 296.647 738.305 299.5 738.305C382.205 738.305 449.25 672.199 449.25 590.653C449.25 585.708 449.003 580.82 448.522 576H933C934.657 576 936 577.343 936 579V963C936 964.657 934.657 966 933 966H579.04C564.138 927.795 541.201 892.691 511.279 863.188C455.111 807.807 378.932 776.695 299.5 776.695C296.662 776.695 293.829 776.735 291 776.814V738.071ZM596.102 816.636C595.396 816.636 594.824 816.064 594.824 815.358C594.966 801.793 596.386 790.997 599.085 782.972C601.784 774.946 605.619 768.447 610.591 763.476C615.562 758.504 621.528 753.923 628.489 749.733C632.679 747.176 636.443 744.158 639.781 740.678C643.119 737.126 645.747 733.043 647.665 728.426C649.653 723.81 650.648 718.696 650.648 713.085C650.648 706.125 649.014 700.088 645.747 694.974C642.48 689.861 638.112 685.919 632.643 683.149C627.175 680.379 621.102 678.994 614.426 678.994C608.602 678.994 602.991 680.202 597.594 682.616C592.196 685.031 587.686 688.831 584.064 694.016C582.438 696.342 581.12 698.991 580.11 701.962C577.816 708.705 572.247 714.364 565.125 714.364C557.396 714.364 551.051 707.831 552.934 700.336C554.507 694.076 556.964 688.418 560.307 683.362C566.06 674.769 573.624 668.199 582.999 663.653C592.445 659.108 602.92 656.835 614.426 656.835C626.926 656.835 637.793 659.321 647.026 664.293C656.33 669.264 663.503 676.082 668.545 684.747C673.659 693.412 676.216 703.284 676.216 714.364C676.216 722.176 675.009 729.243 672.594 735.564C670.25 741.885 666.841 747.531 662.366 752.503C657.963 757.474 652.636 761.878 646.386 765.713C640.136 769.619 635.129 773.739 631.365 778.071C627.601 782.332 624.866 787.411 623.162 793.305C621.457 799.2 620.534 806.551 620.392 815.358C620.392 816.064 619.82 816.636 619.114 816.636H596.102ZM608.46 879.705C603.205 879.705 598.695 877.822 594.93 874.058C591.166 870.294 589.284 865.784 589.284 860.528C589.284 855.273 591.166 850.763 594.93 846.999C598.695 843.234 603.205 841.352 608.46 841.352C613.716 841.352 618.226 843.234 621.99 846.999C625.754 850.763 627.636 855.273 627.636 860.528C627.636 864.008 626.749 867.205 624.973 870.117C623.268 873.028 620.96 875.372 618.048 877.148C615.207 878.852 612.011 879.705 608.46 879.705ZM408.502 344.634C406.016 339.052 408.525 332.511 414.108 330.024L446.709 315.502C452.291 313.016 458.832 315.525 461.319 321.108C463.805 326.69 461.296 333.231 455.713 335.718L423.112 350.24C417.53 352.726 410.989 350.217 408.502 344.634Z" />
</svg>
